<svg width="56" height="57" viewBox="0 0 56 57" fill="none" xmlns="http://www.w3.org/2000/svg">
<g filter="url(#filter0_d_4_133)">
<path d="M50.4999 13.9468V13.9509V34.073C50.4999 38.1448 49.292 41.2149 47.2414 43.2654C45.1908 45.316 42.1208 46.5239 38.049 46.5239H17.951C13.8791 46.5239 10.8095 45.316 8.75917 43.2631C6.70857 41.2099 5.5 38.1339 5.5 34.049V13.9509C5.5 9.87908 6.70793 6.80907 8.7585 4.7585C10.8091 2.70793 13.8791 1.5 17.951 1.5H38.073C42.1451 1.5 45.2146 2.70806 47.2618 4.75784C49.3087 6.8073 50.5111 9.87591 50.4999 13.9468ZM32.8144 36.2213C37.2926 36.2213 40.9176 32.5963 40.9176 28.118V20.5783C40.9176 13.4587 35.1315 7.67257 28.012 7.67257C20.8924 7.67257 15.1063 13.4587 15.1063 20.5783V28.8144C15.1063 35.1655 20.2921 40.3514 26.6433 40.3514C28.4562 40.3514 29.9442 38.8634 29.9442 37.0505C29.9442 36.5119 29.8129 36.0021 29.5808 35.5514C30.5711 35.9823 31.6646 36.2213 32.8144 36.2213ZM24.7111 28.118C24.7111 30.3169 25.5851 32.3101 27.0049 33.7695C26.8861 33.7563 26.7654 33.7496 26.6433 33.7496C23.9179 33.7496 21.7081 31.5397 21.7081 28.8144V20.5783C21.7081 17.1085 24.5422 14.2744 28.012 14.2744C31.4817 14.2744 34.3159 17.1085 34.3159 20.5783V28.118C34.3159 28.9464 33.6428 29.6195 32.8144 29.6195C31.986 29.6195 31.3129 28.9464 31.3129 28.118V23.3156C31.3129 21.5027 29.8249 20.0147 28.012 20.0147C26.199 20.0147 24.7111 21.5027 24.7111 23.3156V28.118Z" stroke="white" stroke-width="3"/>
</g>
<defs>
<filter id="filter0_d_4_133" x="0" y="0" width="56" height="56.0239" filterUnits="userSpaceOnUse" color-interpolation-filters="sRGB">
<feFlood flood-opacity="0" result="BackgroundImageFix"/>
<feColorMatrix in="SourceAlpha" type="matrix" values="0 0 0 0 0 0 0 0 0 0 0 0 0 0 0 0 0 0 127 0" result="hardAlpha"/>
<feOffset dy="4"/>
<feGaussianBlur stdDeviation="2"/>
<feComposite in2="hardAlpha" operator="out"/>
<feColorMatrix type="matrix" values="0 0 0 0 0 0 0 0 0 0 0 0 0 0 0 0 0 0 0.25 0"/>
<feBlend mode="normal" in2="BackgroundImageFix" result="effect1_dropShadow_4_133"/>
<feBlend mode="normal" in="SourceGraphic" in2="effect1_dropShadow_4_133" result="shape"/>
</filter>
</defs>
</svg>
